<svg xmlns="http://www.w3.org/2000/svg" xmlns:xlink="http://www.w3.org/1999/xlink" width="500" zoomAndPan="magnify" viewBox="0 0 375 374.999991" height="500" preserveAspectRatio="xMidYMid meet" version="1.0"><defs><clipPath id="4a27649120"><path d="M 26.589844 0 L 348.339844 0 L 348.339844 375 L 26.589844 375 Z M 26.589844 0 " clip-rule="nonzero"/></clipPath></defs><g clip-path="url(#4a27649120)"><path fill="#231f20" d="M 330.851562 306.007812 L 330.851562 306.042969 C 327.230469 310.550781 323.371094 314.925781 319.273438 319.171875 C 312.183594 326.519531 304.546875 333.25 296.363281 339.367188 C 288.183594 345.480469 279.566406 350.898438 270.507812 355.617188 C 274.976562 348.480469 278.722656 340.980469 281.738281 333.117188 C 291.75 306.972656 292.601562 279.898438 284.140625 256.882812 C 270.839844 220.710938 236.484375 202.644531 200.109375 183.519531 C 173.351562 169.492188 145.730469 154.984375 125.933594 132.578125 C 111.660156 116.394531 104.1875 96.398438 104.757812 76.410156 C 104.757812 75.964844 104.757812 75.523438 104.804688 75.078125 C 104.84375 74.195312 104.898438 73.308594 104.972656 72.421875 C 105.152344 70.261719 105.425781 68.027344 105.808594 65.84375 C 108.351562 51.117188 115.316406 37.175781 126.121094 24.753906 C 147.164062 2.644531 182.167969 -7.800781 224 6.675781 L 224.070312 6.675781 C 230.546875 8.980469 236.902344 11.578125 243.140625 14.460938 C 249.378906 17.347656 255.472656 20.511719 261.421875 23.953125 C 267.371094 27.394531 273.152344 31.101562 278.765625 35.070312 C 284.375 39.039062 289.792969 43.257812 295.019531 47.71875 C 300.246094 52.183594 305.261719 56.878906 310.058594 61.800781 C 314.855469 66.71875 319.421875 71.851562 323.75 77.1875 C 328.082031 82.527344 332.160156 88.050781 335.984375 93.761719 C 339.8125 99.472656 343.367188 105.34375 346.660156 111.378906 C 277.890625 85.867188 239.664062 97.738281 222.875 90.179688 C 219.808594 88.773438 216.859375 87.148438 214.027344 85.3125 C 211.199219 83.476562 208.515625 81.445312 205.980469 79.222656 C 203.445312 76.996094 201.085938 74.597656 198.902344 72.027344 C 196.714844 69.457031 194.726562 66.742188 192.9375 63.882812 L 192.9375 63.839844 C 159.828125 12.851562 134.109375 42.003906 140.632812 77.1875 C 145.597656 100.472656 159.722656 122.140625 180.90625 138.359375 C 206.445312 157.910156 237.535156 167.195312 264.972656 175.410156 C 297.613281 185.171875 325.789062 193.589844 339.019531 215.382812 C 354.140625 240.324219 350.667969 278.183594 330.851562 306.007812 Z M 174.921875 191.464844 C 138.550781 172.339844 104.195312 154.261719 90.902344 118.105469 C 82.429688 95.085938 83.289062 68.011719 93.292969 41.867188 C 96.3125 34.003906 100.054688 26.503906 104.527344 19.371094 C 95.46875 24.089844 86.847656 29.507812 78.664062 35.621094 C 70.484375 41.738281 62.84375 48.472656 55.753906 55.824219 C 51.652344 60.0625 47.792969 64.4375 44.167969 68.949219 C 24.324219 96.816406 20.835938 134.675781 36.007812 159.617188 C 49.238281 181.402344 77.421875 189.828125 110.054688 199.589844 C 137.488281 207.792969 168.582031 217.082031 194.128906 236.640625 C 215.3125 252.859375 229.449219 274.527344 234.394531 297.8125 C 240.925781 332.996094 215.203125 362.148438 182.097656 311.160156 L 182.097656 311.117188 C 180.304688 308.257812 178.316406 305.542969 176.128906 302.976562 C 173.941406 300.40625 171.582031 298.007812 169.046875 295.78125 C 166.511719 293.554688 163.828125 291.523438 161 289.6875 C 158.167969 287.851562 155.21875 286.230469 152.152344 284.820312 C 135.363281 277.261719 97.136719 289.148438 28.375 263.621094 C 31.664062 269.65625 35.21875 275.527344 39.042969 281.234375 C 42.871094 286.945312 46.945312 292.46875 51.273438 297.804688 C 55.601562 303.140625 60.167969 308.269531 64.964844 313.191406 C 69.757812 318.109375 74.769531 322.804688 79.996094 327.265625 C 85.21875 331.730469 90.636719 335.945312 96.246094 339.914062 C 101.859375 343.882812 107.636719 347.585938 113.585938 351.027344 C 119.53125 354.46875 125.625 357.632812 131.859375 360.519531 C 138.097656 363.402344 144.453125 366 150.925781 368.304688 L 150.992188 368.304688 C 192.800781 382.777344 227.828125 372.332031 248.867188 350.21875 C 259.679688 337.78125 266.636719 323.847656 269.183594 309.128906 C 269.566406 306.9375 269.84375 304.742188 270.019531 302.546875 C 270.089844 301.660156 270.148438 300.773438 270.183594 299.886719 C 270.183594 299.449219 270.226562 299.007812 270.242188 298.5625 C 270.804688 278.578125 263.363281 258.589844 249.0625 242.40625 C 229.261719 220.023438 201.644531 205.507812 174.921875 191.464844 Z M 174.921875 191.464844 " fill-opacity="1" fill-rule="nonzero"/></g></svg>