<?xml version="1.0" encoding="UTF-8"?>
<svg width="423px" height="187px" viewBox="0 0 423 187" version="1.1" xmlns="http://www.w3.org/2000/svg" xmlns:xlink="http://www.w3.org/1999/xlink">
    <title>9EF44B9A-B2F9-4192-8B73-B4F7B354D0D9</title>
    <g id="Dashboard" stroke="none" stroke-width="1" fill="none" fill-rule="evenodd">
        <g id="First-user-empty-state" transform="translate(-495.000000, -763.000000)">
            <g id="Group-14" transform="translate(495.000000, 763.000000)">
                <ellipse id="Oval" fill="#C2C2C2" opacity="0.125023251" transform="translate(211.061322, 136.000000) rotate(-1.000000) translate(-211.061322, -136.000000) " cx="211.061322" cy="136" rx="210.5" ry="34"></ellipse>
                <rect id="Rectangle" fill="#E8F7FC" x="152.561322" y="48" width="115" height="80" rx="15"></rect>
                <path d="M201.760541,8 C196.860541,8 192.462103,10.4996094 189.862103,14.599609 C188.962103,15.999609 188.139408,16.9177675 189.535143,18.0971807 C190.806545,18.6471061 191.358222,18.9109566 192.158222,17.4109566 C191.264495,14.3161391 198.960541,11.1112132 201.760541,11.1112132 C203.627207,11.1112132 210.28482,11.1112132 221.733378,11.1112132 C226.133378,11.1112132 230.479851,17.6 230.479851,22 L230.479851,24.900391 L165.561322,24.900391 C158.361322,24.900391 152.561322,30.700391 152.561322,37.900391 L152.561322,57.599609 C152.561322,58.699609 153.161322,59.599219 154.061322,60.199219 C169.461322,69.399219 186.560541,74.599219 203.760541,75.699219 L203.760541,81.300781 C203.760541,85.700781 207.360541,89.300781 211.760541,89.300781 C216.160541,89.300781 219.760541,85.700781 219.760541,81.300781 L219.760541,75.5 C236.260541,74.1 252.460932,68.999219 267.160932,60.199219 C268.060932,59.699219 268.660932,58.699609 268.660932,57.599609 L268.660932,38 C268.560932,30.8 262.761322,25 255.561322,25 L233.362103,25 L233.362103,22 C233.362103,14.3 227.062103,8 219.362103,8 L201.760541,8 Z M162.965168,28 L258.157475,28 C262.282475,28 265.561322,31.5815148 265.561322,36.0872914 L265.561322,56.8831836 C231.503629,78.3722721 189.619014,78.3722721 155.561322,56.8831836 L155.561322,36.0872914 C155.561322,31.5815148 158.840168,28 162.965168,28 Z M154.228405,69.699219 C152.528405,69.699219 152.56114,70.999219 152.56114,72.699219 L152.56114,116 C152.56114,123.2 158.361322,129 165.561322,129 L255.561322,129 C262.761322,129 268.561322,123.2 268.561322,116 L268.561322,72.699219 C268.561322,70.999219 269.000458,69.699219 267.300458,69.699219 C265.600458,69.699219 265.561322,70.999219 265.561322,72.699219 L265.561322,116 C265.561322,119.9 260.461322,126 256.561322,126 L163.422666,126 C159.522666,126 155.561322,121.494448 155.561322,117.594448 L155.561322,72.699219 C155.561322,70.999219 155.928405,69.699219 154.228405,69.699219 Z" id="Shape" fill="#D8D8D8" fill-rule="nonzero"></path>
                <g id="Group-12" transform="translate(229.561322, 86.000000)">
                    <circle id="Oval" fill="#B8E7F8" cx="46" cy="30" r="22"></circle>
                    <rect id="Rectangle" fill="#B8E7F8" transform="translate(71.331467, 71.330659) rotate(-42.000000) translate(-71.331467, -71.330659) " x="63.3314666" y="49.8306586" width="16" height="43" rx="8"></rect>
                    <rect id="Rectangle" stroke="#C2C2C2" stroke-width="2" transform="translate(70.331467, 79.330659) rotate(-42.000000) translate(-70.331467, -79.330659) " x="63.3314666" y="58.8306586" width="14" height="41" rx="7"></rect>
                    <g id="Group-7">
                        <circle id="Oval" fill="#FFFFFF" cx="32" cy="32" r="32"></circle>
                        <circle id="Oval" stroke="#C2C2C2" stroke-width="2" fill="#FFFFFF" cx="32.5" cy="32.5" r="26.5"></circle>
                        <circle id="Oval" fill="#B8E7F8" cx="34" cy="29" r="16"></circle>
                        <circle id="Oval" fill="#FFFFFF" cx="37" cy="25" r="10"></circle>
                    </g>
                </g>
                <g id="Group-5" transform="translate(104.561322, 0.000000)" stroke="#F5A623" stroke-linecap="square">
                    <line x1="8.00182867" y1="5.5" x2="8.00182867" y2="0.825662261" id="Line-2"></line>
                    <line x1="8.00182867" y1="15.5" x2="8.00182867" y2="10.8256623" id="Line-2"></line>
                    <line x1="3.00182867" y1="10.5" x2="3.00182867" y2="5.82566226" id="Line-2" transform="translate(3.000000, 8.000000) rotate(90.000000) translate(-3.000000, -8.000000) "></line>
                    <line x1="13.0018287" y1="10.5" x2="13.0018287" y2="5.82566226" id="Line-2" transform="translate(13.000000, 8.000000) rotate(90.000000) translate(-13.000000, -8.000000) "></line>
                </g>
                <g id="Group-5" transform="translate(138.439155, 127.000000)" stroke="#F5A623" stroke-linecap="square">
                    <line x1="8.00182867" y1="5.5" x2="8.00182867" y2="0.825662261" id="Line-2"></line>
                    <line x1="8.00182867" y1="15.5" x2="8.00182867" y2="10.8256623" id="Line-2"></line>
                    <line x1="3.00182867" y1="10.5" x2="3.00182867" y2="5.82566226" id="Line-2" transform="translate(3.000000, 8.000000) rotate(90.000000) translate(-3.000000, -8.000000) "></line>
                    <line x1="13.0018287" y1="10.5" x2="13.0018287" y2="5.82566226" id="Line-2" transform="translate(13.000000, 8.000000) rotate(90.000000) translate(-13.000000, -8.000000) "></line>
                </g>
                <g id="Group-5" transform="translate(308.122643, 72.000000)" stroke="#F5A623" stroke-linecap="square">
                    <line x1="8.00182867" y1="5.5" x2="8.00182867" y2="0.825662261" id="Line-2"></line>
                    <line x1="8.00182867" y1="15.5" x2="8.00182867" y2="10.8256623" id="Line-2"></line>
                    <line x1="3.00182867" y1="10.5" x2="3.00182867" y2="5.82566226" id="Line-2" transform="translate(3.000000, 8.000000) rotate(90.000000) translate(-3.000000, -8.000000) "></line>
                    <line x1="13.0018287" y1="10.5" x2="13.0018287" y2="5.82566226" id="Line-2" transform="translate(13.000000, 8.000000) rotate(90.000000) translate(-13.000000, -8.000000) "></line>
                </g>
            </g>
        </g>
    </g>
</svg>