<?xml version="1.0" encoding="UTF-8"?>
<svg width="423px" height="187px" viewBox="0 0 423 187" version="1.1" xmlns="http://www.w3.org/2000/svg" xmlns:xlink="http://www.w3.org/1999/xlink">
    <title>0EB4CF76-9DE2-4DE9-8B7F-4D36163C2BAF</title>
    <g id="Dashboard" stroke="none" stroke-width="1" fill="none" fill-rule="evenodd">
        <g id="First-user-empty-state" transform="translate(-797.000000, -231.000000)">
            <g id="Group-9" transform="translate(797.000000, 231.000000)">
                <ellipse id="Oval" fill="#C2C2C2" opacity="0.125023251" transform="translate(211.500000, 126.667487) rotate(-1.000000) translate(-211.500000, -126.667487) " cx="211.5" cy="126.667487" rx="210.5" ry="34"></ellipse>
                <g id="Group-5" transform="translate(231.316512, 0.000000)" stroke="#F5A623" stroke-linecap="square">
                    <line x1="8.00182867" y1="5.5" x2="8.00182867" y2="0.825662261" id="Line-2"></line>
                    <line x1="8.00182867" y1="15.5" x2="8.00182867" y2="10.8256623" id="Line-2"></line>
                    <line x1="3.00182867" y1="10.5" x2="3.00182867" y2="5.82566226" id="Line-2" transform="translate(3.000000, 8.000000) rotate(90.000000) translate(-3.000000, -8.000000) "></line>
                    <line x1="13.0018287" y1="10.5" x2="13.0018287" y2="5.82566226" id="Line-2" transform="translate(13.000000, 8.000000) rotate(90.000000) translate(-13.000000, -8.000000) "></line>
                </g>
                <g id="Group-5" transform="translate(138.316512, 124.000000)" stroke="#F5A623" stroke-linecap="square">
                    <line x1="8.00182867" y1="5.5" x2="8.00182867" y2="0.825662261" id="Line-2"></line>
                    <line x1="8.00182867" y1="15.5" x2="8.00182867" y2="10.8256623" id="Line-2"></line>
                    <line x1="3.00182867" y1="10.5" x2="3.00182867" y2="5.82566226" id="Line-2" transform="translate(3.000000, 8.000000) rotate(90.000000) translate(-3.000000, -8.000000) "></line>
                    <line x1="13.0018287" y1="10.5" x2="13.0018287" y2="5.82566226" id="Line-2" transform="translate(13.000000, 8.000000) rotate(90.000000) translate(-13.000000, -8.000000) "></line>
                </g>
                <g id="Group-5" transform="translate(274.316512, 69.000000)" stroke="#F5A623" stroke-linecap="square">
                    <line x1="8.00182867" y1="5.5" x2="8.00182867" y2="0.825662261" id="Line-2"></line>
                    <line x1="8.00182867" y1="15.5" x2="8.00182867" y2="10.8256623" id="Line-2"></line>
                    <line x1="3.00182867" y1="10.5" x2="3.00182867" y2="5.82566226" id="Line-2" transform="translate(3.000000, 8.000000) rotate(90.000000) translate(-3.000000, -8.000000) "></line>
                    <line x1="13.0018287" y1="10.5" x2="13.0018287" y2="5.82566226" id="Line-2" transform="translate(13.000000, 8.000000) rotate(90.000000) translate(-13.000000, -8.000000) "></line>
                </g>
                <path d="M207.808032,10.0975439 L232.889184,104.967597 L163.191968,123.902456 L138.110816,29.0324032 L207.808032,10.0975439 Z" id="Rectangle" stroke="#C2C2C2" stroke-width="2" fill="#FFFFFF"></path>
                <rect id="Rectangle" stroke="#C2C2C2" stroke-width="2" fill="#FFFFFF" x="175" y="38" width="80" height="99" rx="1"></rect>
                <rect id="Rectangle" fill="#EEEEEE" x="214.316512" y="97" width="31" height="12"></rect>
                <rect id="Rectangle" fill="#EEEEEE" transform="translate(227.438678, 61.000000) scale(1, -1) translate(-227.438678, -61.000000) " x="215.438678" y="59" width="24" height="4"></rect>
                <rect id="Rectangle" fill="#EEEEEE" transform="translate(227.438678, 69.000000) scale(1, -1) translate(-227.438678, -69.000000) " x="215.438678" y="67" width="24" height="4"></rect>
                <rect id="Rectangle" fill="#EEEEEE" transform="translate(227.438678, 77.000000) scale(1, -1) translate(-227.438678, -77.000000) " x="215.438678" y="75" width="24" height="4"></rect>
                <rect id="Rectangle" fill="#EEEEEE" transform="translate(245.438678, 61.000000) scale(-1, -1) translate(-245.438678, -61.000000) " x="243.438678" y="59" width="4" height="4"></rect>
                <rect id="Rectangle" fill="#EEEEEE" transform="translate(245.438678, 69.000000) scale(-1, -1) translate(-245.438678, -69.000000) " x="243.438678" y="67" width="4" height="4"></rect>
                <rect id="Rectangle" fill="#EEEEEE" transform="translate(245.438678, 77.000000) scale(-1, -1) translate(-245.438678, -77.000000) " x="243.438678" y="75" width="4" height="4"></rect>
                <rect id="Rectangle" fill="#D8D8D8" x="214.316512" y="104" width="31" height="4"></rect>
                <rect id="Rectangle" fill="#D8D8D8" x="214.316512" y="111" width="31" height="4"></rect>
                <g id="icons8-pie-chart" transform="translate(183.000000, 56.000000)" fill-rule="nonzero">
                    <path d="M25.4218061,12.5 C25.4218061,18.8692308 20.2525753,24.0384615 13.8833446,24.0384615 C7.5141138,24.0384615 2.34488303,18.8692308 2.34488303,12.5 C2.34488303,6.13076923 7.5141138,0.961538462 13.8833446,0.961538462 C13.8833446,0.961538462 13.8833446,12.5 13.8833446,12.5 L25.4218061,12.5 Z" id="Path" fill="#FFFFFF"></path>
                    <path d="M12.4410369,25 C5.81912106,25 0.421806106,19.6026851 0.421806106,12.9807692 C0.421806106,6.35885341 5.81912106,0.961538462 12.4410369,0.961538462 C12.8265594,0.961538462 13.1213707,1.25634978 13.1213707,1.64187228 L13.1213707,12.3004354 L23.7799338,12.3004354 C24.1654563,12.3004354 24.4602676,12.5952467 24.4602676,12.9807692 C24.4602676,19.6026851 19.0629527,25 12.4410369,25 Z M11.7607031,2.34488389 C6.20464355,2.70772859 1.78247374,7.33399855 1.78247374,12.9807692 C1.78247374,18.8543179 6.56748825,23.6393324 12.4410369,23.6393324 C18.0878076,23.6393324 22.7367553,19.2171626 23.0769222,13.661103 L12.4410369,13.661103 C12.0555144,13.661103 11.7607031,13.3662917 11.7607031,12.9807692 L11.7607031,2.34488389 Z" id="Shape" fill="#C2C2C2"></path>
                    <path d="M15.8064215,9.61538462 L15.8064215,0.961538462 C20.2944534,1.58295827 23.8388478,5.1273527 24.4602676,9.61538462 L15.8064215,9.61538462 Z" id="Path" fill="#FFFFFF"></path>
                    <path d="M24.6884923,10.5769231 L15.5722433,10.5769231 C15.1600725,10.5769231 14.844883,10.2617336 14.844883,9.84956279 L14.844883,0.733313812 C14.844883,0.515105725 14.9418644,0.321142981 15.0873365,0.175670923 C15.2570539,0.0301988647 15.4510166,-0.0182918214 15.6692247,0.00595352164 C20.712256,0.684823126 24.7127376,4.70955007 25.4158526,9.75258141 C25.4400979,9.9707895 25.3916072,10.1647522 25.2461352,10.3344696 C25.1006631,10.4799417 24.9067004,10.5769231 24.6884923,10.5769231 Z M16.2996036,9.1222025 L23.8156599,9.1222025 C22.9670729,5.38841967 20.0333864,2.45473317 16.2996036,1.60614616 L16.2996036,9.1222025 Z" id="Shape" fill="#B8E7F8"></path>
                </g>
                <path d="M198,103 C198.188889,103 198.333333,103.144444 198.333333,103.333333 C198.333333,103.522222 198.188889,103.666667 198,103.666667 C197.811111,103.666667 197.666667,103.522222 197.666667,103.333333 C197.666667,103.144444 197.811111,103 198,103 Z" id="Path" fill="#FFFFFF" fill-rule="nonzero"></path>
                <path d="M191.888889,104.588976 C192.077778,104.588976 192.222222,104.73342 192.222222,104.922309 C192.222222,105.111198 192.077778,105.255642 191.888889,105.255642 C191.7,105.255642 191.555556,105.111198 191.555556,104.922309 C191.555556,104.73342 191.7,104.588976 191.888889,104.588976 Z" id="Path" fill="#FFFFFF" fill-rule="nonzero"></path>
                <path d="M194.888889,106.366753 C195.077778,106.366753 195.222222,106.511198 195.222222,106.700087 C195.222222,106.888976 195.077778,107.03342 194.888889,107.03342 C194.7,107.03342 194.555556,106.888976 194.555556,106.700087 C194.555556,106.511198 194.7,106.366753 194.888889,106.366753 Z" id="Path" fill="#FFFFFF" fill-rule="nonzero"></path>
                <g id="Group-12" transform="translate(212.000000, 86.000000)">
                    <circle id="Oval" fill="#B8E7F8" cx="46" cy="30" r="22"></circle>
                    <rect id="Rectangle" fill="#B8E7F8" transform="translate(71.331467, 71.330659) rotate(-42.000000) translate(-71.331467, -71.330659) " x="63.3314666" y="49.8306586" width="16" height="43" rx="8"></rect>
                    <rect id="Rectangle" stroke="#C2C2C2" stroke-width="2" transform="translate(70.331467, 79.330659) rotate(-42.000000) translate(-70.331467, -79.330659) " x="63.3314666" y="58.8306586" width="14" height="41" rx="7"></rect>
                    <g id="Group-7">
                        <circle id="Oval" fill="#FFFFFF" cx="32" cy="32" r="32"></circle>
                        <circle id="Oval" stroke="#C2C2C2" stroke-width="2" fill="#FFFFFF" cx="32.5" cy="32.5" r="26.5"></circle>
                        <circle id="Oval" fill="#B8E7F8" cx="34" cy="29" r="16"></circle>
                        <circle id="Oval" fill="#FFFFFF" cx="37" cy="25" r="10"></circle>
                    </g>
                </g>
                <g id="Group-8" transform="translate(185.438678, 93.000000)" fill-rule="nonzero">
                    <path d="M0.5,0 C0.216666667,0 0,0.1625 0,0.375 L0,1.625 C0,1.8375 0.216666667,2 0.5,2 C0.783333333,2 1,1.8375 1,1.625 L1,0.375 C1,0.1625 0.783333333,0 0.5,0 Z" id="Path" fill="#C2C2C2"></path>
                    <g id="Group-3" transform="translate(0.000000, 1.000000)">
                        <path d="M15.7142857,-6.76625789e-12 C16.3465986,-6.76625789e-12 16.9036362,0.368031359 17.1477434,0.899048034 L17.1984127,1.02439024 L21.4761905,1.02439024 C21.7730159,1.02439024 22,1.24634146 22,1.53658537 C22,1.79457995 21.8206545,1.99861488 21.57233,2.04077085 L21.4761905,2.04878049 L17.1984127,2.04878049 C16.9714286,2.64634146 16.3952381,3.07317073 15.7142857,3.07317073 C15.5571429,3.07317073 15.4,3.05403842 15.2502232,3.00845854 L15.1031746,2.95379188 L12.2222222,6.00962276 C12.3269841,6.23157398 12.3968254,6.47079846 12.3968254,6.72689602 C12.3968254,7.58055456 11.6984127,8.26348139 10.8253968,8.26348139 C9.95238095,8.26348139 9.25396825,7.58055456 9.25396825,6.72689602 C9.25396825,6.65860334 9.26166779,6.5978098 9.27197424,6.53451655 L9.28875252,6.43645202 L7.12394589,5.17330407 C6.84458081,5.39525529 6.4952381,5.53177407 6.11111111,5.53177407 C5.23809524,5.53177407 4.53968254,4.84884724 4.53968254,3.99518871 C4.53968254,3.14153017 5.23809524,2.45860334 6.11111111,2.45860334 C6.98412698,2.45860334 7.68253968,3.14153017 7.68253968,3.99518871 C7.68253968,4.06348139 7.67484015,4.12412666 7.6645337,4.18732107 L7.64775541,4.2852991 L9.81256205,5.54878049 C10.0919271,5.32682927 10.4412698,5.19031066 10.8253968,5.19031066 C10.9825397,5.19031066 11.1396825,5.20944287 11.2894593,5.2550227 L11.4365079,5.30968934 L14.3174603,2.2535252 C14.2126984,2.03157398 14.1428571,1.79268293 14.1428571,1.53658537 C14.1428571,0.682926829 14.8412698,-6.76625789e-12 15.7142857,-6.76625789e-12 Z M10.8253968,6.19769432 C10.5285714,6.19769432 10.3015873,6.41964554 10.3015873,6.70988944 C10.3015873,7.00013334 10.5285714,7.22208456 10.8253968,7.22208456 C11.1222222,7.22208456 11.3492063,7.00013334 11.3492063,6.70988944 C11.3492063,6.41964554 11.1222222,6.19769432 10.8253968,6.19769432 Z M6.11111111,3.465987 C5.81428571,3.465987 5.58730159,3.68793822 5.58730159,3.97818212 C5.58730159,4.26842602 5.81428571,4.49037724 6.11111111,4.49037724 C6.40793651,4.49037724 6.63492063,4.26842602 6.63492063,3.97818212 C6.63492063,3.68793822 6.40793651,3.465987 6.11111111,3.465987 Z M15.7142857,1.02439024 C15.4174603,1.02439024 15.1904762,1.24634146 15.1904762,1.53658537 C15.1904762,1.82682927 15.4174603,2.04878049 15.7142857,2.04878049 C16.0111111,2.04878049 16.2380952,1.82682927 16.2380952,1.53658537 C16.2380952,1.24634146 16.0111111,1.02439024 15.7142857,1.02439024 Z" id="Combined-Shape" fill="#C2C2C2"></path>
                        <path d="M0.523809524,4.6097561 C0.226984127,4.6097561 0,4.83170732 0,5.12195122 L0,20.4878049 C0,20.7780488 0.226984127,21 0.523809524,21 L21.4761905,21 C21.7730159,21 22,20.7780488 22,20.4878049 C22,20.197561 21.7730159,19.9756098 21.4761905,19.9756098 L1.04761905,19.9756098 L1.04761905,5.12195122 C1.04761905,4.83170732 0.820634921,4.6097561 0.523809524,4.6097561 Z" id="Path" fill="#C2C2C2"></path>
                        <path d="M16.9365079,7.17073171 C17.2333333,7.17073171 17.4603175,7.39268293 17.4603175,7.68292683 L17.4603175,7.68292683 L17.4603175,17.9268293 C17.4603175,18.2170732 17.2333333,18.4390244 16.9365079,18.4390244 L16.9365079,18.4390244 L14.4920635,18.4390244 C14.1952381,18.4390244 13.968254,18.2170732 13.968254,17.9268293 L13.968254,17.9268293 L13.968254,7.68292683 C13.968254,7.39268293 14.1952381,7.17073171 14.4920635,7.17073171 L14.4920635,7.17073171 Z M16.4126984,8.19512195 L15.015873,8.19512195 L15.015873,17.4146341 L16.4126984,17.4146341 L16.4126984,8.19512195 Z" id="Combined-Shape" fill="#B8E7F8"></path>
                        <path d="M7.33333333,9.73170732 C7.63015873,9.73170732 7.85714286,9.95365854 7.85714286,10.2439024 L7.85714286,10.2439024 L7.85714286,17.9268293 C7.85714286,18.2170732 7.63015873,18.4390244 7.33333333,18.4390244 L7.33333333,18.4390244 L4.88888889,18.4390244 C4.59206349,18.4390244 4.36507937,18.2170732 4.36507937,17.9268293 L4.36507937,17.9268293 L4.36507937,10.2439024 C4.36507937,9.95365854 4.59206349,9.73170732 4.88888889,9.73170732 L4.88888889,9.73170732 Z M6.80952381,10.7560976 L5.41269841,10.7560976 L5.41269841,17.4146341 L6.80952381,17.4146341 L6.80952381,10.7560976 Z" id="Combined-Shape" fill="#B8E7F8"></path>
                        <path d="M12.047619,12.2926829 C12.3444444,12.2926829 12.5714286,12.5146341 12.5714286,12.804878 L12.5714286,12.804878 L12.5714286,17.9268293 C12.5714286,18.2170732 12.3444444,18.4390244 12.047619,18.4390244 L12.047619,18.4390244 L9.6031746,18.4390244 C9.30634921,18.4390244 9.07936508,18.2170732 9.07936508,17.9268293 L9.07936508,17.9268293 L9.07936508,12.804878 C9.07936508,12.5146341 9.30634921,12.2926829 9.6031746,12.2926829 L9.6031746,12.2926829 Z M11.5238095,13.3170732 L10.1269841,13.3170732 L10.1269841,17.4146341 L11.5238095,17.4146341 L11.5238095,13.3170732 Z" id="Combined-Shape" fill="#B8E7F8"></path>
                    </g>
                </g>
            </g>
        </g>
    </g>
</svg>